# xmcd CD database file
#
# Track frame offsets:
#	150
#	18177
#	36540
#	54507
#
# Disc length: 970 seconds
#
# Revision: 0
# Processed by: cddbd v1.5PL3 Copyright (c) Steve Scherf et al.
# Submitted via: CDex 1.51
#
DISCID=2c03c804
DTITLE=河野陽吾 - アニメ「キン肉マンII世」op.　HUSTLE MUSCLE
DYEAR=1900
DGENRE=Anime
TTITLE0=HUSTLE MUSCLE
TTITLE1=Say Your Muscle
TTITLE2=HUSTLE MUSCLE(カラオケ)
TTITLE3=Say Your Muscle(カラオケ)
EXTD=
EXTT0=
EXTT1=
EXTT2=
EXTT3=
PLAYORDER=
